<?xml version="1.0" encoding="utf-8"?>
<!-- Generator: Adobe Illustrator 25.2.1, SVG Export Plug-In . SVG Version: 6.00 Build 0)  -->
<svg version="1.1" id="Layer_1" xmlns="http://www.w3.org/2000/svg" xmlns:xlink="http://www.w3.org/1999/xlink" x="0px" y="0px"
	 viewBox="0 0 32 32" style="enable-background:new 0 0 32 32;" xml:space="preserve">
<style type="text/css">
	.st0{fill:#231F20;stroke:#000000;stroke-width:0.5;stroke-miterlimit:10;}
	.st1{fill:none;}
	.st2{fill:none;stroke:#000000;stroke-width:0.75;stroke-miterlimit:10;}
</style>
<path class="st0" d="M28.4,13.5C28.4,13.5,28.3,13.5,28.4,13.5c-0.1-0.1-0.2-0.1-0.2,0c-0.4,3.9-5.4,5.6-7.8,2.2
	c-1.1-1.6-0.7-3.6,0.5-5c1.2-1.5,3.5-1.7,5.1-1c0.1,0,0.2-0.1,0.1-0.1c-2.4-2.1-5.4-2.8-8.2-2.2c0,0-0.1,0-0.1,0c0,0-0.1,0-0.1,0
	c-0.1,0-0.1,0-0.2,0c-0.9,0.2-1.7,0.6-2.5,1C14,9.2,13,10,12.2,11.1c0,0,0,0,0,0c-1.3,1.4-2.3,3-3.7,4.3c-1.7,1.6-3.9,2-6.3,2
	c-0.1,0-0.1,0.1,0,0.2c2.4,0.9,4.8,0.2,6.8-1.4c0.6-0.5,1.1-1,1.6-1.6c-0.8,3.1,0.2,6.3,2.3,8.5c0.1,0.1,0.2,0.2,0.3,0.3
	c0,0,0.1,0.1,0.1,0.1c0.1,0.1,0.2,0.2,0.4,0.3c0,0,0,0,0.1,0c0.1,0.1,0.2,0.2,0.3,0.3c0,0,0.1,0.1,0.1,0.1c0.1,0.1,0.1,0.1,0.2,0.2
	c0.1,0.1,0.2,0.2,0.3,0.2c0,0,0,0,0,0c1.6,1,3.4,1.6,5.4,1.6c0.1,0,0.1-0.2,0-0.2C13.5,25.7,9.2,19,11.9,13c0.6-1.2,1.4-2.3,2.5-3.1
	c-1.7,2-2.3,4.8-1.2,7.5c1.9,4.7,8.3,5.7,11.7,2.1c0.1-0.1,0-0.2-0.1-0.1c-3.4,2.9-8.6,2.1-10.7-2c-1.9-3.6,0.1-7.6,3.5-9.1
	C17.8,8.1,18.1,8,18.4,8c1.5-0.3,3.2-0.2,4.7,0.2c0.6,0.2,1.3,0.5,1.8,0.8c0,0,0.1,0.1,0.1,0.1c0,0-0.1,0-0.1,0
	c-4.1-1.3-7.5,4-4.9,7.3c0.7,0.9,1.7,1.5,2.7,1.7c0,0,0.1,0,0.1,0c0,0,0.1,0,0.1,0c0.7,0.1,1.5,0.1,2.2-0.1c0.2,0,0.3-0.1,0.5-0.2
	C27.1,17.3,28.4,15.8,28.4,13.5z"/>
<circle class="st1" cx="16" cy="16" r="16"/>
<circle class="st2" cx="16" cy="16" r="15.8"/>
<line class="st2" x1="2.2" y1="17.4" x2="8.6" y2="29.9"/>
<line class="st2" x1="28.3" y1="13.8" x2="31.4" y2="19.5"/>
</svg>
