<svg xmlns="http://www.w3.org/2000/svg" viewBox="0 0 121 9" width="122" height="9" ><path d="M3.5 4.9l112.45-.4" stroke="#8b0509" stroke-miterlimit="10" stroke-width="1.3"/><circle cx="60.5" cy="4.5" r="3.6" fill="#ffcc00"/><path d="M60.5 0A4.5 4.5 0 1 0 65 4.5 4.49 4.49 0 0 0 60.5 0zm0 8.1a3.6 3.6 0 1 1 3.6-3.6h0a3.6 3.6 0 0 1-3.6 3.6z"/><circle cx="79.5" cy="4.5" r="3.6" fill="#ff8800"/><path d="M79.5,9A4.5,4.5,0,1,1,84,4.5,4.49,4.49,0,0,1,79.5,9Zm0-8.1a3.6,3.6,0,1,0,3.6,3.6h0A3.6,3.6,0,0,0,79.5.9Z"/><circle cx="23.5" cy="4.5" r="3.6" fill="#5EBBFF"/><path d="M23.5,0A4.5,4.5,0,1,0,28,4.5,4.49,4.49,0,0,0,23.5,0Zm0,8.1a3.6,3.6,0,1,1,3.6-3.6,3.6,3.6,0,0,1-3.6,3.6Z"/><circle cx="4.5" cy="4.5" r="3.6" fill="#3565FF"/><path d="M4.5,0A4.5,4.5,0,1,0,9,4.5,4.49,4.49,0,0,0,4.5,0Zm0,8.1A3.6,3.6,0,1,1,8.1,4.5,3.6,3.6,0,0,1,4.5,8.1Z"/><circle cx="41.5" cy="4.5" r="3.6" fill="#FFFFBA"/><path d="M41.5 0A4.5 4.5 0 1 0 46 4.5 4.49 4.49 0 0 0 41.5 0zm0 8.1a3.6 3.6 0 1 1 3.6-3.6h0a3.6 3.6 0 0 1-3.6 3.6z"/><circle cx="116.5" cy="4.5" r="3.6" fill="#cc0000"/><path d="M116.5 0a4.5 4.5 0 1 0 4.5 4.5 4.49 4.49 0 0 0-4.5-4.5zm0 8.1a3.6 3.6 0 1 1 3.6-3.6h0a3.6 3.6 0 0 1-3.6 3.6z"/><circle cx="98.5" cy="4.5" r="3.6" fill="#ff5000"/><path d="M98.5 0a4.5 4.5 0 1 0 4.5 4.5A4.49 4.49 0 0 0 98.5 0zm0 8.1a3.6 3.6 0 1 1 3.6-3.6h0a3.6 3.6 0 0 1-3.6 3.6z"/></svg>