<svg xmlns="http://www.w3.org/2000/svg" viewBox="304 96 43 44" height="44" width="43"><defs><clipPath id="A"><path d="M38.778 271.402c0-42.05 34.088-76.138 76.139-76.138h0c42.051 0 76.14 34.088 76.14 76.138h0c0 42.051-34.089 76.139-76.14 76.139h0c-42.051 0-76.139-34.088-76.139-76.139"/></clipPath><clipPath id="B"><path d="M38.975 16.451h151.884v151.887H38.975z"/></clipPath><clipPath id="C"><path d="M50.785 137.488h173.47V6.5H50.785z"/></clipPath><clipPath id="D"><path d="M228.253 271.402c0-8.836 7.164-16 16.001-16h0c8.836 0 16 7.164 16 16h0c0 8.837-7.164 16-16 16h0c-8.837 0-16.001-7.163-16.001-16"/></clipPath><clipPath id="E"><path d="M230.398 279.787h34.329v-27.526h-34.329z"/></clipPath></defs><g transform="matrix(1.333333 0 0 -1.333333 0 480)"><g clip-path="url(#A)"><path d="M191.058 271.402c0-42.051-34.09-76.139-76.141-76.139s-76.138 34.088-76.138 76.139 34.088 76.139 76.138 76.139 76.141-34.088 76.141-76.139" fill="#42BBF0"/><path d="M0 0c.025.246-.156.361-.348.355C-.547.373-.754.258-.746 0c-1.988-18.76-25.803-26.623-36.91-10.232-5.026 7.418-3.365 17.16 2.158 23.689 5.936 7.02 16.437 8.119 24.463 4.553.361-.16.793.281.453.586-11.377 10.162-25.773 13.185-38.994 10.414-.139-.028-.279-.045-.418-.076-.219-.045-.436-.108-.654-.159l-.946-.228c-4.09-1.014-8.027-2.623-11.676-4.754-5.269-3.031-9.996-7.129-13.822-12.166-.053-.055-.105-.107-.156-.164-6.029-6.822-11.008-14.449-17.69-20.693-8.261-7.721-18.773-9.524-29.74-9.317-.441.008-.476-.594-.097-.732 11.441-4.211 23.058-1.006 32.212 6.593 2.739 2.272 5.165 4.86 7.428 7.614-3.652-14.864 1.147-29.887 10.864-40.561.433-.478.884-.939 1.337-1.4l.43-.446c.566-.56 1.15-1.101 1.744-1.63.084-.073.162-.151.246-.223.51-.449 1.035-.877 1.563-1.301l.674-.543a41.52 41.52 0 0 1 1.017-.748c.487-.357.979-.713 1.481-1.051.05-.035.103-.066.156-.101 7.4-4.951 16.285-7.826 25.848-7.555.484.014.476.715 0 .746-31.133 1.977-51.623 33.76-38.483 62.67 2.701 5.943 6.85 10.983 11.865 14.955-7.937-9.326-10.775-22.947-5.691-35.642 8.975-22.411 39.51-26.975 55.525-9.762.332.357-.162.834-.527.529-16.312-13.703-40.969-9.877-50.894 9.418-8.819 17.141.662 35.969 16.507 43.303a47.37 47.37 0 0 0 3.825 1.039c7.343 1.637 15.041.93 22.197-1.178 3.084-.908 5.994-2.326 8.801-3.873.23-.135.265-.277.056-.209-19.64 6.27-35.736-19-23.484-34.783 3.451-4.441 7.961-7.115 12.703-8.252a20.88 20.88 0 0 1 .633-.154c.127-.028.254-.051.381-.076 3.412-.711 6.972-.647 10.306.287a22.2 22.2 0 0 1 2.194.744C-5.855-17.918.369-10.572 0 0z" fill="none" stroke="#fff" stroke-width="2" stroke-miterlimit="10"/></g><path d="M38.975 16.451h151.884v151.887H38.975z" fill="#24a1e3"/><g clip-path="url(#B)"><g clip-path="url(#C)"><path d="M164.979 127.856s-11.278 6.711-23.842-.832c-10.76-6.461-8.398-25.754-3.903-31.182 4.696-5.668 20.311-8.976 27.128-5.25 9.465 5.176 10.933 14.135 10.851 19.024l49.042-96.358-131.01-6.757-42.459 83.48c34.084-8.508 40.425 29.441 59.64 40.209 18.257 10.232 36.288 9.932 54.553-2.334" fill="#3f4096"/></g><path d="M175.561 109.26c.025.246-.156.361-.348.355-.199.018-.406-.097-.398-.355-1.988-18.76-25.803-26.623-36.91-10.233-5.027 7.418-3.365 17.161 2.158 23.69 5.935 7.019 16.436 8.119 24.463 4.553.361-.16.793.281.453.586-11.377 10.162-25.773 13.185-38.995 10.414-.138-.028-.278-.045-.418-.076-.219-.045-.436-.108-.653-.159l-.947-.228a44.35 44.35 0 0 1-11.675-4.754c-5.269-3.031-9.996-7.129-13.822-12.166l-.157-.164c-6.029-6.822-11.007-14.449-17.688-20.694-8.262-7.72-18.774-9.523-29.742-9.316-.44.008-.474-.594-.096-.732 11.441-4.211 23.058-1.006 32.212 6.593 2.739 2.272 5.165 4.86 7.428 7.614-3.652-14.864 1.147-29.887 10.864-40.561.433-.478.884-.939 1.337-1.4l.43-.446c.567-.56 1.15-1.101 1.743-1.63.085-.073.162-.151.246-.223.511-.449 1.036-.877 1.564-1.301l.673-.543c.334-.256.676-.502 1.017-.748a45.56 45.56 0 0 1 1.483-1.051c.049-.035.102-.066.155-.101 7.4-4.951 16.285-7.826 25.848-7.555.484.014.476.715 0 .746-31.133 1.977-51.623 33.76-38.483 62.67 2.701 5.943 6.85 10.982 11.864 14.955-7.936-9.326-10.774-22.947-5.69-35.642 8.974-22.411 39.51-26.975 55.525-9.762.331.357-.162.834-.527.529-16.312-13.703-40.969-9.877-50.894 9.418-8.819 17.141.662 35.969 16.507 43.303 1.262.394 2.536.752 3.825 1.039 7.343 1.637 15.041.93 22.197-1.178 3.084-.908 5.994-2.326 8.801-3.873l.687-.408-.632.199c-19.639 6.27-35.735-19-23.483-34.783 3.45-4.441 7.961-7.115 12.703-8.252a20.88 20.88 0 0 1 .633-.154c.127-.028.255-.051.382-.076 3.411-.711 6.971-.647 10.305.287.746.205 1.474.463 2.195.744 8.005 2.951 14.229 10.297 13.86 20.869" fill="#fff"/></g><g clip-path="url(#D)"><path d="M260.254 271.402c0-8.836-7.164-16-16-16s-16 7.164-16 16 7.163 16 16 16 16-7.163 16-16" fill="#42bbe6"/><g clip-path="url(#E)"><path d="M254.396 277.762s-2.371 1.411-5.011-.175c-2.26-1.357-1.764-5.411-.82-6.552.987-1.191 4.269-1.886 5.701-1.103 1.988 1.088 2.297 2.97 2.28 3.997l8.181-16.028-25.406-5.64-8.922 17.542c7.162-1.787 8.495 6.187 12.533 8.45 3.836 2.151 7.625 2.087 11.464-.491" fill="#3f4096"/></g><path d="M256.619 273.855c.005.052-.033.076-.073.074-.042.004-.086-.02-.084-.074-.418-3.942-5.422-5.595-7.756-2.15-1.057 1.558-.708 3.606.453 4.978 1.247 1.475 3.454 1.706 5.141.956.076-.033.167.06.095.123-2.391 2.136-5.416 2.772-8.194 2.189l-.088-.016-.138-.033-.199-.048a9.35 9.35 0 0 1-2.453-.999 9.75 9.75 0 0 1-2.904-2.557.35.35 0 0 1-.033-.034c-1.267-1.433-2.314-3.037-3.717-4.349-1.737-1.623-3.946-2.001-6.25-1.957-.093.001-.101-.125-.021-.155 2.405-.884 4.846-.211 6.77 1.386.575.477 1.085 1.021 1.56 1.6-.767-3.124.242-6.281 2.284-8.523l.28-.295.091-.094.366-.342.052-.046.328-.274.141-.114.214-.157.312-.221c.01-.008.021-.015.033-.021 1.555-1.041 3.422-1.645 5.432-1.588.101.003.099.15 0 .157-6.543.415-10.849 7.094-8.087 13.169.567 1.249 1.439 2.308 2.493 3.143-1.668-1.96-2.265-4.822-1.196-7.49 1.885-4.71 8.302-5.669 11.668-2.052.07.076-.034.176-.111.112-3.428-2.88-8.609-2.075-10.695 1.979-1.853 3.602.14 7.558 3.469 9.1a10.24 10.24 0 0 0 .803.218c1.544.344 3.161.195 4.665-.247.649-.192 1.26-.49 1.85-.815l.145-.085-.133.041c-4.127 1.319-7.51-3.992-4.936-7.308a4.76 4.76 0 0 1 2.67-1.735l.133-.032c.026-.006.054-.011.08-.017.717-.149 1.465-.135 2.166.061.156.043.31.098.461.156 1.683.62 2.99 2.164 2.913 4.386" fill="#fff"/></g></g></svg>