<svg xmlns="http://www.w3.org/2000/svg" width="480" height="140" viewBox="0 0 480 140"><style type="text/css">.st0{fill:#00ACED;}.st1{fill:#FFFFFF;}</style><g><path class="st0" d="M480,120c0,11-9,20-20,20H20c-11,0-20-9-20-20V20C0,9,9,0,20,0h440c11,0,20,9,20,20V120z"/></g><path class="st1" d="M38.4,72.9c2.2,2,4.2,3.3,6.3,3.8l2.3,1l-1.8,0.5h-2.8c-1,0-2-0.1-3.3-0.2c1.4,4.4,3.9,7.6,7.4,9.6c3.3,2,6.5,3,9.5,3c-1.7,1.2-3.4,2.4-5.1,3.5c-5.6,2.8-11.2,4.2-16.8,4.2c-1.6,0-3.3-0.1-4.9-0.2c8.4,5.5,17.5,8.2,27.6,8.2c12.5,0,23.7-4.1,33.4-12.2c6.8-6.2,11.8-13.7,15.1-22.5c1.8-5.7,2.8-11.2,2.8-16.2v-3.3c1.1-0.8,2.8-2.2,5.1-4.2c1.7-2,3-3.8,3.9-5.2c-4.5,1.9-7.9,2.8-10.2,2.8c0.8-0.5,2-1.5,3.8-3c2-2.5,3.4-5,4.1-7.3c-2.5,1.6-5,2.7-7.4,3.5c-2.3,0.8-3.8,1.2-4.1,1.2c-3.9-3.8-8.3-5.7-13.3-5.7c-4.8,0-9,1.8-12.5,5.2c-3.8,3.6-5.6,7.9-5.6,13c0,1.3,0.2,2.6,0.5,4.2c-1.3,0-4-0.3-7.9-1c-6.5-1.8-12.2-4.2-17.2-7.5c-3.9-2.3-7.9-5.8-12-10.6c-1.5,3-2.3,5.8-2.3,8.7c0,4.6,1.3,8.7,4.1,12.2c1.4,1.8,2.6,2.7,3.8,3v0.2c-2.5,0-5.1-0.7-7.9-2.1C33.1,64.5,34.8,69,38.4,72.9L38.4,72.9z"/><polyline class="st1" points="138.2,0.3 166.4,70.4 138.2,140.3 146.6,140.1 174.9,70.4 146.6,0.3 "/></svg>