<?xml version="1.0" encoding="iso-8859-1"?>
<!-- Generator: Adobe Illustrator 19.2.1, SVG Export Plug-In . SVG Version: 6.00 Build 0)  -->
<svg version="1.1" id="Layer_1" xmlns="http://www.w3.org/2000/svg" xmlns:xlink="http://www.w3.org/1999/xlink" x="0px" y="0px"
	 viewBox="0 0 463.326 39.219" width="463.326px" height="39.219px" style="enable-background:new 0 0 463.326 39.219;" xml:space="preserve">
<g>
	<polygon style="fill:#5D5E5E;" points="13.494,0.018 0,0.018 0,39.207 35.2,39.207 35.2,31.271 13.494,31.271 	"/>
	<path style="fill:#5D5E5E;" d="M38.427,8.737V23.58h28.456v4.263c0,1.861-2.054,3.379-4.597,3.379H38.427v7.985h30.266
		c6.499,0,11.781-3.918,11.781-8.72V15.595H52.02v-4.213c0-1.861,2.054-3.381,4.547-3.381h23.908V0.017H50.161
		C43.708,0.017,38.427,3.937,38.427,8.737z"/>
	<path style="fill:#5D5E5E;" d="M112.45,0.017v27.826c0,1.91-2.054,3.428-4.597,3.428H97.489V0.115H84.045v39.092h30.215
		c6.453,0,11.733-3.918,11.733-8.72V0.017H112.45z"/>
</g>
<rect x="142.995" style="fill:#5D5E5E;" width="1" height="39.219"/>
<g>
	<path style="fill:#5D5E5E;" d="M165.537,26.773c-2.399,0-4.249-0.774-5.674-2.399c-1.399-1.574-2.1-3.674-2.1-6.224
		c0-2.175,0.375-3.899,1.175-5.399c1.35-2.524,3.849-4.024,6.648-4.024c1.725,0,3.449,0.55,4.399,1.375l-1.575,2.375
		c-0.875-0.65-1.799-0.975-2.774-0.975c-1.175,0-2.325,0.575-2.95,1.5c-0.675,1-0.975,2.449-0.975,4.474
		c0,2.375,0.2,3.699,0.725,4.65c0.7,1.274,1.849,1.949,3.349,1.949c1.024,0,1.949-0.3,2.974-1.125l1.6,2.2
		C168.986,26.273,167.511,26.773,165.537,26.773z"/>
	<path style="fill:#5D5E5E;" d="M180.71,24.973c-0.975,1.1-2.25,1.775-4.224,1.775c-3.474,0-5.749-2.6-5.749-6.625
		c0-4.024,2.299-6.698,5.749-6.698c1.824,0,3.249,0.625,4.349,1.925c1.025,1.2,1.475,2.599,1.475,4.674
		C182.31,22.224,181.81,23.724,180.71,24.973z M177.986,16.575c-0.325-0.425-0.85-0.675-1.45-0.675c-0.8,0-1.45,0.5-1.725,1.299
		c-0.225,0.675-0.35,1.575-0.35,2.85c0,1.474,0.15,2.575,0.425,3.225c0.3,0.7,1.05,1.05,1.699,1.05c1.45,0,2.075-1.3,2.075-4.325
		C178.661,18.274,178.436,17.15,177.986,16.575z"/>
	<path style="fill:#5D5E5E;" d="M193.481,27.122c-0.775-0.324-1.475-0.899-1.799-1.549c-0.25,0.25-0.525,0.499-0.775,0.675
		c-0.625,0.449-1.525,0.699-2.574,0.699c-2.85,0-4.399-1.449-4.399-3.999c0-3,2.074-4.399,6.148-4.399c0.25,0,0.475,0,0.75,0.025
		v-0.525c0-1.425-0.275-1.899-1.5-1.899c-1.075,0-2.324,0.524-3.699,1.449l-1.424-2.399c0.675-0.425,1.174-0.675,2.074-1.049
		c1.25-0.525,2.325-0.75,3.499-0.75c2.15,0,3.625,0.8,4.124,2.225c0.175,0.525,0.25,0.925,0.225,2.299l-0.075,4.299
		c-0.025,1.399,0.075,2,1.2,2.85L193.481,27.122z M190.632,20.874c-2.325,0-3.125,0.425-3.125,1.95c0,1,0.625,1.675,1.475,1.675
		c0.625,0,1.25-0.325,1.75-0.875l0.05-2.75H190.632z"/>
	<path style="fill:#5D5E5E;" d="M201.408,26.873c-1.575,0-3.299-0.5-5.174-1.476l1.2-2.449c1.024,0.625,2.799,1.45,4.249,1.45
		c0.95,0,1.699-0.625,1.699-1.45c0-0.874-0.625-1.325-1.974-1.575l-1.5-0.275c-0.85-0.149-1.899-0.749-2.349-1.299
		c-0.45-0.55-0.725-1.475-0.725-2.299c0-2.5,1.975-4.174,4.949-4.174c2.05,0,3.399,0.625,4.574,1.2l-1.1,2.25
		c-1.274-0.65-2.199-0.925-3.149-0.925c-0.975,0-1.625,0.5-1.625,1.25c0,0.65,0.425,1,1.6,1.299l1.549,0.4
		c1.575,0.4,2.1,0.875,2.549,1.45c0.475,0.6,0.7,1.325,0.7,2.175C206.881,25.073,204.682,26.873,201.408,26.873z"/>
	<path style="fill:#5D5E5E;" d="M212.929,26.773c-1.7,0-3.049-0.75-3.449-1.874c-0.2-0.55-0.225-0.8-0.225-1.975v-6.949h-1.274
		v-2.299h1.274c0-1.25,0-2.075,0.125-3.024l3.399-0.85c-0.125,1.175-0.2,2.574-0.2,3.874h3l-0.85,2.299h-2.149v6.424
		c0,1.625,0.3,2.05,1.45,2.05c0.3,0,0.6-0.075,1.2-0.25l0.425,1.999C214.679,26.598,213.804,26.773,212.929,26.773z"/>
	<path style="fill:#5D5E5E;" d="M226.203,27.122c-0.775-0.324-1.475-0.899-1.799-1.549c-0.25,0.25-0.525,0.499-0.775,0.675
		c-0.625,0.449-1.525,0.699-2.574,0.699c-2.85,0-4.399-1.449-4.399-3.999c0-3,2.074-4.399,6.148-4.399c0.25,0,0.475,0,0.75,0.025
		v-0.525c0-1.425-0.275-1.899-1.5-1.899c-1.075,0-2.324,0.524-3.699,1.449L216.93,15.2c0.675-0.425,1.174-0.675,2.074-1.049
		c1.25-0.525,2.325-0.75,3.499-0.75c2.15,0,3.625,0.8,4.124,2.225c0.175,0.525,0.25,0.925,0.225,2.299l-0.075,4.299
		c-0.025,1.399,0.075,2,1.199,2.85L226.203,27.122z M223.354,20.874c-2.325,0-3.125,0.425-3.125,1.95c0,1,0.625,1.675,1.475,1.675
		c0.625,0,1.25-0.325,1.75-0.875l0.05-2.75H223.354z"/>
	<path style="fill:#5D5E5E;" d="M233.354,26.773c-1.425,0-2.575-0.675-2.975-1.749c-0.25-0.65-0.3-1.05-0.3-2.875v-9.548
		c0-1.675-0.05-2.699-0.175-3.849l3.424-0.775c0.125,0.7,0.175,1.525,0.175,3.324v9.972c0,2.201,0.025,2.5,0.225,2.85
		c0.125,0.226,0.4,0.35,0.675,0.35c0.125,0,0.2,0,0.375-0.05l0.575,2C234.778,26.648,234.078,26.773,233.354,26.773z"/>
	<path style="fill:#5D5E5E;" d="M246.903,26.848c-1.975,0-4.175-0.575-5.924-1.574l1.3-2.725c1.624,0.85,3.024,1.399,4.773,1.399
		c2,0,3.05-0.825,3.05-2.375c0-1.125-0.726-1.825-2.275-2.25l-1.924-0.525c-1.725-0.475-2.8-1.149-3.425-2.199
		c-0.475-0.775-0.725-1.675-0.725-2.649c0-3.174,2.55-5.374,6.224-5.374c2.125,0,4.274,0.65,5.799,1.75l-1.649,2.5
		c-1.575-0.95-2.75-1.325-4.05-1.325c-1.424,0-2.424,0.825-2.424,2c0,0.899,0.475,1.35,1.925,1.75l2.099,0.575
		c2.85,0.775,4.399,2.6,4.399,5.174C254.076,24.524,251.226,26.848,246.903,26.848z"/>
	<path style="fill:#5D5E5E;" d="M264.749,26.822c-0.425-0.3-0.775-0.725-1-1.249c-0.825,0.8-2.024,1.225-3.374,1.225
		c-1.8,0-3.35-0.85-3.774-2.075c-0.2-0.574-0.274-1.249-0.274-2.549v-8.199l3.299-0.625v8.223c0,1.15,0.1,1.75,0.274,2.1
		c0.176,0.35,0.676,0.6,1.175,0.6c0.825,0,1.825-0.6,2.075-1.225V14.05l3.199-0.675v9.773c0,0.85,0.274,1.725,0.774,2.324
		L264.749,26.822z"/>
	<path style="fill:#5D5E5E;" d="M273.77,26.873c-1.575,0-3.3-0.5-5.174-1.476l1.199-2.449c1.025,0.625,2.8,1.45,4.249,1.45
		c0.95,0,1.7-0.625,1.7-1.45c0-0.874-0.625-1.325-1.975-1.575l-1.5-0.275c-0.85-0.149-1.899-0.749-2.35-1.299
		c-0.449-0.55-0.725-1.475-0.725-2.299c0-2.5,1.975-4.174,4.949-4.174c2.049,0,3.398,0.625,4.573,1.2l-1.1,2.25
		c-1.274-0.65-2.199-0.925-3.149-0.925c-0.975,0-1.624,0.5-1.624,1.25c0,0.65,0.425,1,1.6,1.299l1.55,0.4
		c1.574,0.4,2.099,0.875,2.549,1.45c0.475,0.6,0.7,1.325,0.7,2.175C279.244,25.073,277.044,26.873,273.77,26.873z"/>
	<path style="fill:#5D5E5E;" d="M285.292,26.773c-1.7,0-3.05-0.75-3.449-1.874c-0.2-0.55-0.225-0.8-0.225-1.975v-6.949h-1.275
		v-2.299h1.275c0-1.25,0-2.075,0.125-3.024l3.398-0.85c-0.125,1.175-0.199,2.574-0.199,3.874h2.999l-0.85,2.299h-2.149v6.424
		c0,1.625,0.3,2.05,1.449,2.05c0.3,0,0.6-0.075,1.199-0.25l0.426,1.999C287.041,26.598,286.167,26.773,285.292,26.773z"/>
	<path style="fill:#5D5E5E;" d="M298.565,27.122c-0.775-0.324-1.475-0.899-1.8-1.549c-0.25,0.25-0.525,0.499-0.775,0.675
		c-0.624,0.449-1.524,0.699-2.574,0.699c-2.849,0-4.398-1.449-4.398-3.999c0-3,2.074-4.399,6.148-4.399c0.25,0,0.475,0,0.75,0.025
		v-0.525c0-1.425-0.275-1.899-1.5-1.899c-1.075,0-2.324,0.524-3.699,1.449l-1.425-2.399c0.675-0.425,1.175-0.675,2.075-1.049
		c1.249-0.525,2.324-0.75,3.499-0.75c2.149,0,3.624,0.8,4.124,2.225c0.175,0.525,0.25,0.925,0.225,2.299l-0.075,4.299
		c-0.024,1.399,0.075,2,1.2,2.85L298.565,27.122z M295.715,20.874c-2.324,0-3.124,0.425-3.124,1.95c0,1,0.625,1.675,1.475,1.675
		c0.625,0,1.249-0.325,1.749-0.875l0.05-2.75H295.715z"/>
	<path style="fill:#5D5E5E;" d="M304.366,12.226c-1.124,0-2.049-0.925-2.049-2.074c0-1.15,0.949-2.075,2.1-2.075
		c1.124,0,2.024,0.925,2.024,2.075C306.441,11.301,305.516,12.226,304.366,12.226z M302.692,26.473V13.901l3.349-0.525v13.097
		H302.692z"/>
	<path style="fill:#5D5E5E;" d="M316.339,26.473V18.15c0-1.45-0.25-1.875-1.125-1.875c-0.675,0-1.549,0.45-2.324,1.149v9.048h-3.349
		v-9.273c0-1.1-0.15-2.149-0.45-2.999l2.975-0.85c0.3,0.525,0.475,1.075,0.475,1.6c0.5-0.35,0.925-0.65,1.475-0.95
		c0.675-0.35,1.55-0.55,2.299-0.55c1.425,0,2.675,0.75,3.075,1.85c0.175,0.475,0.249,1.025,0.249,1.825v9.348H316.339z"/>
	<path style="fill:#5D5E5E;" d="M331.564,27.122c-0.775-0.324-1.475-0.899-1.8-1.549c-0.25,0.25-0.525,0.499-0.775,0.675
		c-0.624,0.449-1.524,0.699-2.574,0.699c-2.849,0-4.398-1.449-4.398-3.999c0-3,2.074-4.399,6.148-4.399c0.25,0,0.475,0,0.75,0.025
		v-0.525c0-1.425-0.275-1.899-1.5-1.899c-1.074,0-2.324,0.524-3.699,1.449l-1.425-2.399c0.675-0.425,1.175-0.675,2.075-1.049
		c1.249-0.525,2.324-0.75,3.499-0.75c2.149,0,3.624,0.8,4.124,2.225c0.175,0.525,0.25,0.925,0.225,2.299l-0.075,4.299
		c-0.024,1.399,0.075,2,1.2,2.85L331.564,27.122z M328.714,20.874c-2.324,0-3.124,0.425-3.124,1.95c0,1,0.625,1.675,1.475,1.675
		c0.625,0,1.249-0.325,1.749-0.875l0.05-2.75H328.714z"/>
	<path style="fill:#5D5E5E;" d="M344.364,25.723c-0.875,0.7-1.75,1-2.8,1c-1.25,0-2.124-0.375-2.85-1.175
		c-0.1,0.45-0.125,0.575-0.35,0.925h-2.999c0.25-0.575,0.325-0.95,0.325-2.725V11.901c0-1.575-0.051-2.425-0.226-3.149l3.425-0.8
		c0.1,0.875,0.125,1.4,0.125,2.274v3.024c0,0.375-0.025,0.925-0.075,1.125c0.649-0.7,1.55-1.024,2.724-1.024
		c3.125,0,5.074,2.499,5.074,6.498C346.738,22.448,345.938,24.473,344.364,25.723z M342.789,17.75
		c-0.25-1.1-0.949-1.625-1.824-1.625s-1.475,0.55-1.899,1.025v5.899c0.449,0.399,0.975,0.824,1.874,0.824
		c0.825,0,1.35-0.324,1.625-1c0.3-0.699,0.375-1.375,0.375-2.949C342.939,18.774,342.914,18.299,342.789,17.75z"/>
	<path style="fill:#5D5E5E;" d="M351.036,12.226c-1.124,0-2.049-0.925-2.049-2.074c0-1.15,0.949-2.075,2.1-2.075
		c1.124,0,2.024,0.925,2.024,2.075C353.111,11.301,352.186,12.226,351.036,12.226z M349.362,26.473V13.901l3.349-0.525v13.097
		H349.362z"/>
	<path style="fill:#5D5E5E;" d="M359.357,26.773c-1.425,0-2.574-0.675-2.974-1.749c-0.25-0.65-0.3-1.05-0.3-2.875v-9.548
		c0-1.675-0.051-2.699-0.176-3.849l3.425-0.775c0.125,0.7,0.175,1.525,0.175,3.324v9.972c0,2.201,0.024,2.5,0.225,2.85
		c0.125,0.226,0.4,0.35,0.675,0.35c0.125,0,0.2,0,0.375-0.05l0.575,2C360.782,26.648,360.083,26.773,359.357,26.773z"/>
	<path style="fill:#5D5E5E;" d="M364.782,12.226c-1.124,0-2.049-0.925-2.049-2.074c0-1.15,0.949-2.075,2.1-2.075
		c1.124,0,2.024,0.925,2.024,2.075C366.857,11.301,365.932,12.226,364.782,12.226z M363.108,26.473V13.901l3.349-0.525v13.097
		H363.108z"/>
	<path style="fill:#5D5E5E;" d="M373.631,26.773c-1.7,0-3.05-0.75-3.449-1.874c-0.2-0.55-0.225-0.8-0.225-1.975v-6.949h-1.275
		v-2.299h1.275c0-1.25,0-2.075,0.125-3.024l3.398-0.85c-0.125,1.175-0.199,2.574-0.199,3.874h2.999l-0.85,2.299h-2.149v6.424
		c0,1.625,0.3,2.05,1.449,2.05c0.3,0,0.6-0.075,1.199-0.25l0.426,1.999C375.38,26.598,374.506,26.773,373.631,26.773z"/>
	<path style="fill:#5D5E5E;" d="M384.63,26.673c-0.875,2.475-1.525,3.549-2.45,4.224c-0.85,0.625-1.949,1.024-3.099,1.175
		l-1.149-2.199c0.725-0.2,1.574-0.5,2.074-0.85c0.375-0.275,0.675-0.625,0.949-1.05c0.325-0.525,0.425-0.75,0.726-1.5h-0.851
		c-0.399-1.199-1.074-3.199-1.199-3.6l-3.024-8.998l3.424-0.4l2.225,7.474c0.226,0.775,0.675,2.65,0.675,2.65s0.25-1.425,0.4-2.05
		c0.1-0.425,0.3-1.175,0.5-1.774l1.924-6.099h3.524L384.63,26.673z"/>
	<path style="fill:#5D5E5E;" d="M400.706,26.848c-1.975,0-4.175-0.575-5.924-1.574l1.3-2.725c1.624,0.85,3.024,1.399,4.773,1.399
		c2,0,3.05-0.825,3.05-2.375c0-1.125-0.726-1.825-2.275-2.25l-1.924-0.525c-1.725-0.475-2.8-1.149-3.425-2.199
		c-0.475-0.775-0.725-1.675-0.725-2.649c0-3.174,2.55-5.374,6.224-5.374c2.125,0,4.274,0.65,5.799,1.75l-1.649,2.5
		c-1.575-0.95-2.75-1.325-4.05-1.325c-1.424,0-2.424,0.825-2.424,2c0,0.899,0.475,1.35,1.925,1.75l2.099,0.575
		c2.85,0.775,4.399,2.6,4.399,5.174C407.878,24.524,405.029,26.848,400.706,26.848z"/>
	<path style="fill:#5D5E5E;" d="M414.055,26.773c-1.7,0-3.05-0.75-3.449-1.874c-0.2-0.55-0.225-0.8-0.225-1.975v-6.949h-1.275
		v-2.299h1.275c0-1.25,0-2.075,0.125-3.024l3.398-0.85c-0.125,1.175-0.199,2.574-0.199,3.874h2.999l-0.85,2.299h-2.149v6.424
		c0,1.625,0.3,2.05,1.449,2.05c0.3,0,0.6-0.075,1.199-0.25l0.426,1.999C415.804,26.598,414.93,26.773,414.055,26.773z"/>
	<path style="fill:#5D5E5E;" d="M426.953,26.822c-0.425-0.3-0.775-0.725-1-1.249c-0.825,0.8-2.024,1.225-3.374,1.225
		c-1.8,0-3.35-0.85-3.774-2.075c-0.2-0.574-0.274-1.249-0.274-2.549v-8.199l3.299-0.625v8.223c0,1.15,0.1,1.75,0.275,2.1
		c0.175,0.35,0.675,0.6,1.174,0.6c0.825,0,1.825-0.6,2.075-1.225V14.05l3.199-0.675v9.773c0,0.85,0.274,1.725,0.774,2.324
		L426.953,26.822z"/>
	<path style="fill:#5D5E5E;" d="M439.751,26.473c-0.1-0.2-0.149-0.4-0.199-0.75c-0.825,0.725-1.8,1.075-2.949,1.075
		c-3.25,0-5.299-2.524-5.299-6.5c0-3.999,2.225-6.748,5.474-6.748c0.925,0,1.649,0.225,2.274,0.725
		c-0.05-0.275-0.101-1.149-0.101-1.899V7.977l3.324,0.525v13.297c0,3.149,0.25,4.174,0.476,4.674H439.751z M439.002,17.049
		c-0.625-0.55-1.225-0.825-1.825-0.825c-1.499,0-2.149,1.25-2.149,4.099c0,2.75,0.575,3.65,2.324,3.65
		c0.625,0,1.325-0.425,1.65-0.825V17.049z"/>
	<path style="fill:#5D5E5E;" d="M447.453,12.226c-1.124,0-2.049-0.925-2.049-2.074c0-1.15,0.949-2.075,2.1-2.075
		c1.124,0,2.024,0.925,2.024,2.075C449.528,11.301,448.603,12.226,447.453,12.226z M445.779,26.473V13.901l3.349-0.525v13.097
		H445.779z"/>
	<path style="fill:#5D5E5E;" d="M461.726,24.973c-0.975,1.1-2.25,1.775-4.225,1.775c-3.474,0-5.748-2.6-5.748-6.625
		c0-4.024,2.299-6.698,5.748-6.698c1.825,0,3.25,0.625,4.35,1.925c1.024,1.2,1.475,2.599,1.475,4.674
		C463.326,22.224,462.826,23.724,461.726,24.973z M459.001,16.575c-0.325-0.425-0.85-0.675-1.449-0.675c-0.8,0-1.45,0.5-1.725,1.299
		c-0.226,0.675-0.351,1.575-0.351,2.85c0,1.474,0.15,2.575,0.425,3.225c0.3,0.7,1.05,1.05,1.7,1.05c1.449,0,2.074-1.3,2.074-4.325
		C459.676,18.274,459.452,17.15,459.001,16.575z"/>
</g>
</svg>
